<svg width="40" height="41" viewBox="0 0 40 41" fill="none" xmlns="http://www.w3.org/2000/svg">
<rect y="0.5" width="40" height="40" rx="4" fill="#343434"/>
<path d="M24.669 13.0109C24.669 10.4323 22.5786 8.34195 20 8.34195C17.4214 8.34195 15.3311 10.4323 15.3311 13.0109L15.3311 17.9441" stroke="white" stroke-width="2.04081"/>
<rect x="12" y="17.5" width="16" height="14" rx="2" fill="white"/>
<g clip-path="url(#clip0_85_349)">
<path d="M22.2959 22.8098V21.6733C22.2959 21.538 22.2422 21.4082 22.1465 21.3125C22.0508 21.2168 21.921 21.1631 21.7857 21.1631H18.2143C18.079 21.1631 17.9492 21.2168 17.8535 21.3125C17.7579 21.4082 17.7041 21.538 17.7041 21.6733V22.8212C17.7043 22.9004 17.7229 22.9785 17.7584 23.0493C17.7938 23.1201 17.8452 23.1818 17.9085 23.2294L19.575 24.4794L17.9082 25.7294C17.8449 25.777 17.7936 25.8387 17.7582 25.9095C17.7228 25.9803 17.7043 26.0584 17.7041 26.1376V27.2855C17.7041 27.4208 17.7579 27.5506 17.8535 27.6463C17.9492 27.742 18.079 27.7957 18.2143 27.7957H21.7857C21.921 27.7957 22.0508 27.742 22.1465 27.6463C22.2422 27.5506 22.2959 27.4208 22.2959 27.2855V26.149C22.2959 26.0701 22.2776 25.9922 22.2424 25.9216C22.2072 25.8509 22.1561 25.7894 22.0931 25.7418L20.4228 24.4794L22.0931 23.217C22.156 23.1693 22.2071 23.1078 22.2423 23.0371C22.2774 22.9665 22.2958 22.8887 22.2959 22.8098Z" fill="#343434"/>
</g>
<defs>
<clipPath id="clip0_85_349">
<rect width="8.16325" height="8.16325" fill="white" transform="translate(15.9184 20.3979)"/>
</clipPath>
</defs>
</svg>
