<svg width="62" height="91" viewBox="0 0 62 91" fill="none" xmlns="http://www.w3.org/2000/svg">
<path d="M13.7249 40.543L13.7249 22.2902C13.7249 12.7494 21.4592 5.01501 31.0001 5.01501C40.5409 5.01501 48.2752 12.7494 48.2752 22.2902V40.543"
        stroke="#FFFFFF" stroke-width="7.55101">
        <animate attributeName="d"
            dur="2s"   
            begin="0s" 
            fill="freeze" 
            keyTimes="0;1" 
            values="M13.7249 40.543L13.7249 22.2902C13.7249 12.7494 21.4592 5.01501 31.0001 5.01501C40.5409 5.01501 48.2752 12.7494 48.2752 22.2902V40.543; M48.2751 22.2903C48.2751 12.7495 40.5408 5.01514 30.9999 5.01514C21.4591 5.01514 13.7247 12.7495 13.7247 22.2903L13.7247 40.5432"/>
    </path>
    <rect x="1.3999" y="38.9" width="59.2" height="51.8" rx="7.4" fill="#FFFFFF"/>
<g clip-path="url(#clip0_100_8)">
<path d="M39.4949 58.5461V54.3411C39.4949 53.8405 39.296 53.3603 38.942 53.0063C38.588 52.6523 38.1078 52.4534 37.6071 52.4534H24.3929C23.8922 52.4534 23.4121 52.6523 23.058 53.0063C22.704 53.3603 22.5051 53.8405 22.5051 54.3411V58.5886C22.506 58.8816 22.5747 59.1704 22.7059 59.4325C22.8372 59.6945 23.0273 59.9225 23.2614 60.0988L29.4273 64.7238L23.2602 69.3487C23.0262 69.525 22.8363 69.7531 22.7053 70.0151C22.5743 70.2772 22.5058 70.566 22.5051 70.8589V75.1064C22.5051 75.607 22.704 76.0872 23.058 76.4412C23.4121 76.7952 23.8922 76.9941 24.3929 76.9941H37.6071C38.1078 76.9941 38.588 76.7952 38.942 76.4412C39.296 76.0872 39.4949 75.607 39.4949 75.1064V70.9014C39.4949 70.6094 39.4271 70.3213 39.2969 70.0598C39.1667 69.7984 38.9776 69.5707 38.7445 69.3948L32.5645 64.7238L38.7445 60.0527C38.9773 59.8765 39.1661 59.6487 39.2963 59.3874C39.4265 59.126 39.4944 58.8381 39.4949 58.5461Z" fill="#343434"/>
</g>
<defs>
<clipPath id="clip0_100_8">
<rect width="30.204" height="30.204" fill="#343434" transform="translate(15.8982 49.6221)"/>
</clipPath>
</defs>
</svg>
