<svg width="171" height="131" viewBox="0 0 171 131" fill="none" xmlns="http://www.w3.org/2000/svg">
<g clip-path="url(#clip0_129_20)">
<circle cx="112.003" cy="58.0041" r="47.8139" fill="white" stroke="#121212" stroke-width="2"/>
<circle cx="112.004" cy="58.0041" r="37.3538" fill="white" stroke="#121212" stroke-width="2"/>
<path fill-rule="evenodd" clip-rule="evenodd" d="M84.1687 81.331C78.7007 74.9636 75.3965 66.6841 75.3965 57.6328C75.3965 37.5329 91.6907 21.2388 111.791 21.2388C124.022 21.2388 134.845 27.2731 141.443 36.5272C134.909 30.6813 126.282 27.1268 116.825 27.1268C96.4269 27.1268 79.8908 43.6629 79.8908 64.0612C79.8908 70.3 81.4376 76.1774 84.1687 81.331Z" fill="#121212"/>
<path d="M153.303 112.121L147.529 109.997C147.359 109.935 147.213 109.821 147.109 109.673C147.006 109.525 146.95 109.348 146.95 109.167C146.95 108.986 147.006 108.809 147.109 108.661C147.213 108.512 147.359 108.399 147.529 108.337L153.303 106.213C153.423 106.169 153.532 106.099 153.623 106.009C153.713 105.918 153.783 105.809 153.827 105.689L155.95 99.915C156.013 99.7452 156.126 99.5987 156.275 99.4952C156.423 99.3918 156.6 99.3363 156.781 99.3363C156.962 99.3363 157.138 99.3918 157.287 99.4952C157.435 99.5987 157.549 99.7452 157.611 99.915L159.735 105.689C159.779 105.809 159.849 105.918 159.939 106.009C160.03 106.099 160.139 106.169 160.259 106.213L166.033 108.337C166.203 108.399 166.349 108.512 166.453 108.661C166.556 108.809 166.611 108.986 166.611 109.167C166.611 109.348 166.556 109.525 166.453 109.673C166.349 109.821 166.203 109.935 166.033 109.997L160.259 112.121C160.139 112.165 160.03 112.235 159.939 112.325C159.849 112.416 159.779 112.525 159.735 112.645L157.611 118.419C157.549 118.589 157.435 118.735 157.287 118.839C157.138 118.942 156.962 118.998 156.781 118.998C156.6 118.998 156.423 118.942 156.275 118.839C156.126 118.735 156.013 118.589 155.95 118.419L153.827 112.645C153.783 112.525 153.713 112.416 153.623 112.325C153.532 112.235 153.423 112.165 153.303 112.121Z" fill="#121212"/>
<path d="M157.339 12.7736L151.565 10.6501C151.395 10.5874 151.249 10.4742 151.145 10.3257C151.042 10.1772 150.986 10.0006 150.986 9.81964C150.986 9.63866 151.042 9.46204 151.145 9.31356C151.249 9.16508 151.395 9.05188 151.565 8.98922L157.339 6.86567C157.459 6.82165 157.568 6.75195 157.659 6.66142C157.749 6.57089 157.819 6.46171 157.863 6.34149L159.987 0.567676C160.049 0.397901 160.162 0.251412 160.311 0.147947C160.459 0.0444827 160.636 -0.0109863 160.817 -0.0109863C160.998 -0.0109863 161.175 0.0444827 161.323 0.147947C161.472 0.251412 161.585 0.397901 161.647 0.567676L163.771 6.34149C163.815 6.46171 163.885 6.57089 163.975 6.66142C164.066 6.75195 164.175 6.82165 164.295 6.86567L170.069 8.98922C170.239 9.05188 170.385 9.16508 170.489 9.31356C170.592 9.46204 170.648 9.63866 170.648 9.81964C170.648 10.0006 170.592 10.1772 170.489 10.3257C170.385 10.4742 170.239 10.5874 170.069 10.6501L164.295 12.7736C164.175 12.8176 164.066 12.8873 163.975 12.9779C163.885 13.0684 163.815 13.1776 163.771 13.2978L161.647 19.0716C161.585 19.2414 161.472 19.3879 161.323 19.4913C161.175 19.5948 160.998 19.6503 160.817 19.6503C160.636 19.6503 160.459 19.5948 160.311 19.4913C160.162 19.3879 160.049 19.2414 159.987 19.0716L157.863 13.2978C157.819 13.1776 157.749 13.0684 157.659 12.9779C157.568 12.8873 157.459 12.8176 157.339 12.7736Z" fill="#121212"/>
<path d="M5.90326 26.2121L0.129444 24.0885C-0.0403315 24.0259 -0.18682 23.9127 -0.290285 23.7642C-0.39375 23.6157 -0.449219 23.4391 -0.449219 23.2581C-0.449219 23.0771 -0.39375 22.9005 -0.290285 22.752C-0.18682 22.6036 -0.0403315 22.4904 0.129444 22.4277L5.90326 20.3041C6.02348 20.2601 6.13266 20.1904 6.22318 20.0999C6.31371 20.0094 6.38342 19.9002 6.42744 19.78L8.55099 14.0062C8.61365 13.8364 8.72685 13.6899 8.87533 13.5864C9.02381 13.483 9.20043 13.4275 9.3814 13.4275C9.56238 13.4275 9.739 13.483 9.88748 13.5864C10.036 13.6899 10.1492 13.8364 10.2118 14.0062L12.3354 19.78C12.3794 19.9002 12.4491 20.0094 12.5396 20.0999C12.6302 20.1904 12.7393 20.2601 12.8596 20.3041L18.6334 22.4277C18.8031 22.4904 18.9496 22.6036 19.0531 22.752C19.1566 22.9005 19.212 23.0771 19.212 23.2581C19.212 23.4391 19.1566 23.6157 19.0531 23.7642C18.9496 23.9127 18.8031 24.0259 18.6334 24.0885L12.8596 26.2121C12.7393 26.2561 12.6302 26.3258 12.5396 26.4163C12.4491 26.5069 12.3794 26.616 12.3354 26.7363L10.2118 32.5101C10.1492 32.6798 10.036 32.8263 9.88748 32.9298C9.739 33.0333 9.56238 33.0887 9.3814 33.0887C9.20043 33.0887 9.02381 33.0333 8.87533 32.9298C8.72685 32.8263 8.61365 32.6798 8.55099 32.5101L6.42744 26.7363C6.38342 26.616 6.31371 26.5069 6.22318 26.4163C6.13266 26.3258 6.02348 26.2561 5.90326 26.2121Z" fill="#121212"/>
<circle cx="54.3471" cy="81.9026" r="47.8139" fill="white" stroke="#121212" stroke-width="2"/>
<circle cx="54.3469" cy="81.9027" r="37.3538" stroke="#121212" stroke-width="2"/>
<path fill-rule="evenodd" clip-rule="evenodd" d="M26.4713 105.279C20.9942 98.9013 17.6846 90.6081 17.6846 81.5419C17.6846 61.4088 34.0057 45.0876 54.1388 45.0876C66.3908 45.0876 77.2311 51.1319 83.8406 60.4013C77.296 54.5458 68.6546 50.9854 59.1818 50.9854C38.7497 50.9854 22.1863 67.5489 22.1863 87.9809C22.1863 94.23 23.7357 100.117 26.4713 105.279Z" fill="#121212"/>
<path d="M108.201 130.717C108.201 130.717 77.8105 114.353 77.8105 95.0665C77.8105 90.8816 79.473 86.868 82.4323 83.9087C85.3915 80.9495 89.4051 79.287 93.5901 79.287C100.191 79.287 105.845 82.8842 108.201 88.6379C110.556 82.8842 116.21 79.287 122.811 79.287C126.996 79.287 131.01 80.9495 133.969 83.9087C136.928 86.868 138.591 90.8816 138.591 95.0665C138.591 114.353 108.201 130.717 108.201 130.717Z" fill="white" stroke="#121212" stroke-width="2" stroke-linecap="round" stroke-linejoin="round"/>
<path d="M95.2554 86.0367C93.1852 86.2838 91.1966 86.991 89.4354 88.1067C87.6741 89.2223 86.185 90.718 85.077 92.4841" stroke="#121212" stroke-width="2" stroke-linecap="round"/>
<path d="M54.2765 60.7738L42.0344 81.2015L54.2765 88.4072M54.2765 60.7738L66.6593 81.2015L54.2765 88.4072M54.2765 60.7738V75.581V88.4072M54.2764 103.031L42.0342 85.7958L54.2764 93.1027M54.2764 103.031L66.6591 85.7958L54.2764 93.1027M54.2764 103.031V93.1027" stroke="#121212" stroke-width="2" stroke-linejoin="round"/>
<path d="M111.934 35.7894L99.6916 56.2171L111.934 63.4228M111.934 35.7894L124.317 56.2171L111.934 63.4228M111.934 35.7894V50.5966V63.4228M111.934 78.047L99.6914 60.8114L111.934 68.1182M111.934 78.047L124.316 60.8114L111.934 68.1182M111.934 78.047V68.1182" stroke="#121212" stroke-width="2" stroke-linejoin="round"/>
</g>
<defs>
<clipPath id="clip0_129_20">
<rect width="171" height="131" fill="white"/>
</clipPath>
</defs>
</svg>
