<svg width="171" height="131" viewBox="0 0 171 131" fill="none" xmlns="http://www.w3.org/2000/svg">
<g clip-path="url(#clip0_129_39)">
<circle cx="112.503" cy="58.0041" r="47.8139" fill="#1B1B1B" stroke="#D1D1D1" stroke-width="2"/>
<circle cx="112.504" cy="58.0041" r="37.3538" fill="#1B1B1B" stroke="#D1D1D1" stroke-width="2"/>
<path fill-rule="evenodd" clip-rule="evenodd" d="M84.7525 81.2268C79.3035 74.8815 76.0107 66.6307 76.0107 57.6108C76.0107 37.5806 92.2484 21.343 112.279 21.343C124.468 21.343 135.253 27.3564 141.828 36.5784C135.317 30.7528 126.72 27.2106 117.296 27.2106C96.9682 27.2106 80.4894 43.6894 80.4894 64.0169C80.4894 70.234 82.0309 76.0911 84.7525 81.2268Z" fill="#474747"/>
<path d="M153.802 112.121L148.028 109.997C147.858 109.935 147.712 109.821 147.608 109.673C147.505 109.525 147.449 109.348 147.449 109.167C147.449 108.986 147.505 108.809 147.608 108.661C147.712 108.512 147.858 108.399 148.028 108.337L153.802 106.213C153.922 106.169 154.031 106.099 154.122 106.009C154.212 105.918 154.282 105.809 154.326 105.689L156.449 99.915C156.512 99.7452 156.625 99.5987 156.774 99.4952C156.922 99.3918 157.099 99.3363 157.28 99.3363C157.461 99.3363 157.637 99.3918 157.786 99.4952C157.934 99.5987 158.048 99.7452 158.11 99.915L160.234 105.689C160.278 105.809 160.348 105.918 160.438 106.009C160.529 106.099 160.638 106.169 160.758 106.213L166.532 108.337C166.702 108.399 166.848 108.512 166.952 108.661C167.055 108.809 167.11 108.986 167.11 109.167C167.11 109.348 167.055 109.525 166.952 109.673C166.848 109.821 166.702 109.935 166.532 109.997L160.758 112.121C160.638 112.165 160.529 112.235 160.438 112.325C160.348 112.416 160.278 112.525 160.234 112.645L158.11 118.419C158.048 118.589 157.934 118.735 157.786 118.839C157.637 118.942 157.461 118.998 157.28 118.998C157.099 118.998 156.922 118.942 156.774 118.839C156.625 118.735 156.512 118.589 156.449 118.419L154.326 112.645C154.282 112.525 154.212 112.416 154.122 112.325C154.031 112.235 153.922 112.165 153.802 112.121Z" fill="#D1D1D1"/>
<path d="M157.839 12.7736L152.065 10.6501C151.895 10.5874 151.749 10.4742 151.645 10.3257C151.542 10.1772 151.486 10.0006 151.486 9.81964C151.486 9.63866 151.542 9.46204 151.645 9.31356C151.749 9.16508 151.895 9.05188 152.065 8.98922L157.839 6.86567C157.959 6.82165 158.068 6.75195 158.159 6.66142C158.249 6.57089 158.319 6.46171 158.363 6.34149L160.487 0.567676C160.549 0.397901 160.662 0.251412 160.811 0.147947C160.959 0.0444827 161.136 -0.0109863 161.317 -0.0109863C161.498 -0.0109863 161.675 0.0444827 161.823 0.147947C161.972 0.251412 162.085 0.397901 162.147 0.567676L164.271 6.34149C164.315 6.46171 164.385 6.57089 164.475 6.66142C164.566 6.75195 164.675 6.82165 164.795 6.86567L170.569 8.98922C170.739 9.05188 170.885 9.16508 170.989 9.31356C171.092 9.46204 171.148 9.63866 171.148 9.81964C171.148 10.0006 171.092 10.1772 170.989 10.3257C170.885 10.4742 170.739 10.5874 170.569 10.6501L164.795 12.7736C164.675 12.8176 164.566 12.8873 164.475 12.9779C164.385 13.0684 164.315 13.1776 164.271 13.2978L162.147 19.0716C162.085 19.2414 161.972 19.3879 161.823 19.4913C161.675 19.5948 161.498 19.6503 161.317 19.6503C161.136 19.6503 160.959 19.5948 160.811 19.4913C160.662 19.3879 160.549 19.2414 160.487 19.0716L158.363 13.2978C158.319 13.1776 158.249 13.0684 158.159 12.9779C158.068 12.8873 157.959 12.8176 157.839 12.7736Z" fill="#D1D1D1"/>
<path d="M6.40326 26.2121L0.629444 24.0885C0.459668 24.0259 0.31318 23.9127 0.209715 23.7642C0.10625 23.6157 0.0507813 23.4391 0.0507812 23.2581C0.0507812 23.0771 0.10625 22.9005 0.209715 22.752C0.31318 22.6036 0.459668 22.4904 0.629444 22.4277L6.40326 20.3041C6.52348 20.2601 6.63266 20.1904 6.72318 20.0999C6.81371 20.0094 6.88342 19.9002 6.92744 19.78L9.05099 14.0062C9.11365 13.8364 9.22685 13.6899 9.37533 13.5864C9.52381 13.483 9.70043 13.4275 9.8814 13.4275C10.0624 13.4275 10.239 13.483 10.3875 13.5864C10.536 13.6899 10.6492 13.8364 10.7118 14.0062L12.8354 19.78C12.8794 19.9002 12.9491 20.0094 13.0396 20.0999C13.1302 20.1904 13.2393 20.2601 13.3596 20.3041L19.1334 22.4277C19.3031 22.4904 19.4496 22.6036 19.5531 22.752C19.6566 22.9005 19.712 23.0771 19.712 23.2581C19.712 23.4391 19.6566 23.6157 19.5531 23.7642C19.4496 23.9127 19.3031 24.0259 19.1334 24.0885L13.3596 26.2121C13.2393 26.2561 13.1302 26.3258 13.0396 26.4163C12.9491 26.5069 12.8794 26.616 12.8354 26.7363L10.7118 32.5101C10.6492 32.6798 10.536 32.8263 10.3875 32.9298C10.239 33.0333 10.0624 33.0887 9.8814 33.0887C9.70043 33.0887 9.52381 33.0333 9.37533 32.9298C9.22685 32.8263 9.11365 32.6798 9.05099 32.5101L6.92744 26.7363C6.88342 26.616 6.81371 26.5069 6.72318 26.4163C6.63266 26.3258 6.52348 26.2561 6.40326 26.2121Z" fill="#D1D1D1"/>
<circle cx="54.8471" cy="81.9026" r="47.8139" fill="#1B1B1B" stroke="#D1D1D1" stroke-width="2"/>
<circle cx="54.8469" cy="81.9027" r="37.3538" stroke="#D1D1D1" stroke-width="2"/>
<path fill-rule="evenodd" clip-rule="evenodd" d="M27.1291 105.084C21.6876 98.7475 18.3994 90.5081 18.3994 81.5006C18.3994 61.4981 34.6147 45.2828 54.6172 45.2828C66.7898 45.2828 77.5598 51.2879 84.1264 60.4972C77.6242 54.6796 69.0389 51.1424 59.6275 51.1424C39.328 51.1424 22.872 67.5984 22.872 87.8979C22.872 94.1064 24.4113 99.9554 27.1291 105.084Z" fill="#474747"/>
<path d="M108.701 130.717C108.701 130.717 78.3105 114.353 78.3105 95.0665C78.3105 90.8816 79.973 86.868 82.9323 83.9087C85.8915 80.9495 89.9051 79.287 94.0901 79.287C100.691 79.287 106.345 82.8842 108.701 88.6379C111.056 82.8842 116.71 79.287 123.311 79.287C127.496 79.287 131.51 80.9495 134.469 83.9087C137.428 86.868 139.091 90.8816 139.091 95.0665C139.091 114.353 108.701 130.717 108.701 130.717Z" fill="#1B1B1B" stroke="#D1D1D1" stroke-width="2" stroke-linecap="round" stroke-linejoin="round"/>
<path d="M95.7554 86.0367C93.6852 86.2838 91.6966 86.991 89.9354 88.1067C88.1741 89.2223 86.685 90.718 85.577 92.4841" stroke="#D1D1D1" stroke-width="2" stroke-linecap="round"/>
<path d="M54.7765 60.7738L42.5344 81.2015L54.7765 88.4072M54.7765 60.7738L67.1593 81.2015L54.7765 88.4072M54.7765 60.7738V75.581V88.4072M54.7764 103.031L42.5342 85.7958L54.7764 93.1027M54.7764 103.031L67.1591 85.7958L54.7764 93.1027M54.7764 103.031V93.1027" stroke="#D1D1D1" stroke-width="2" stroke-linejoin="round"/>
<path d="M112.434 35.7894L100.192 56.2171L112.434 63.4228M112.434 35.7894L124.817 56.2171L112.434 63.4228M112.434 35.7894V50.5966V63.4228M112.434 78.047L100.191 60.8114L112.434 68.1182M112.434 78.047L124.816 60.8114L112.434 68.1182M112.434 78.047V68.1182" stroke="#D1D1D1" stroke-width="2" stroke-linejoin="round"/>
</g>
<defs>
<clipPath id="clip0_129_39">
<rect width="171" height="131" fill="white"/>
</clipPath>
</defs>
</svg>
